# xmcd
#
# Track frame offsets: 
#        183
#        11833
#        25568
#        38768
#
# Disc length: 633 seconds
#
# Revision: 0
# Processed by: cddbd v1.5.2PL0 Copyright (c) Steve Scherf et al.
# Submitted via: ExactAudioCopy v0.95b4
#
DISCID=22027704
DTITLE=Cat Scratch Fever - Sex, Drugs and Country Music
DYEAR=1900
DGENRE=Mainstream
TTITLE0=Miss Sally
TTITLE1=1,000 Miles
TTITLE2=Cocaine Blues
TTITLE3=When Payday Rolls Around
EXTD=
EXTT0=
EXTT1=
EXTT2=
EXTT3=
PLAYORDER=
